<svg xmlns="http://www.w3.org/2000/svg" width="780" height="440" viewBox="0 0 780 440"><defs><style>.d{fill:#fff;}.e{fill:#db3e3e;}.f{fill:#162020;}.g{fill:#ff7f6e;}.h{fill:#922;}.i{fill:#f76054;}</style></defs><g id="a"><rect class="e" x=".0018" y=".0014" width="780" height="440"></rect></g><g id="b"><g><path class="h" d="M602.5407,351.6415V82.7567c0-6.1876-5.0083-11.2035-11.1864-11.2035H188.6457c-6.178,0-11.1864,5.0159-11.1864,11.2035V351.6415h-33.5591v5.6018c0,6.1875,5.0083,11.2035,11.1864,11.2035h469.8267c6.178,0,11.1864-5.016,11.1864-11.2035v-5.6018h-33.5591Z"></path><path class="f" d="M624.9131,369.0723H155.0869c-6.5127,0-11.8115-5.3066-11.8115-11.8291v-6.2266h33.5586V82.7568c0-6.5225,5.2988-11.8286,11.8115-11.8286h402.709c6.5127,0,11.8115,5.3062,11.8115,11.8286V351.0166h33.5586v6.2266c0,6.5225-5.2988,11.8291-11.8115,11.8291Zm-480.3877-16.8057v4.9766c0,5.833,4.7383,10.5791,10.5615,10.5791h469.8262c5.8232,0,10.5615-4.7461,10.5615-10.5791v-4.9766h-33.5586V82.7568c0-5.833-4.7383-10.5786-10.5615-10.5786H188.6455c-5.8232,0-10.5615,4.7456-10.5615,10.5786V352.2666h-33.5586Z"></path></g><g><rect class="g" x="187.6447" y="87.5421" width="405.075" height="263.9725"></rect><path class="f" d="M593.3447,352.1396H187.0195V86.917h406.3252V352.1396Zm-405.0752-1.25h403.8252V88.167H188.2695V350.8896Z"></path></g><g><path class="e" d="M650.3124,217.1373c-9.0921-6.2619-18.1843-12.5237-27.2764-18.7856h-85.8632V114.5625h113.5238v102.5748"></path><path class="f" d="M650.3115,217.7622c-.1221,0-.2451-.0356-.3535-.1104l-27.1162-18.6753h-86.2939V113.9375h114.7734v103.1997c0,.4131-.4463,.7158-.8174,.5947-.0615,.02-.127,.0303-.1924,.0303Zm-112.5137-20.0356h85.4326l26.8408,18.4858V115.1875h-112.2734v82.5391Z"></path></g><g><path class="f" d="M631.3438,137.6123h-75.249c-.3447,0-.625-.2798-.625-.625s.2803-.625,.625-.625h75.249c.3447,0,.625,.2798,.625,.625s-.2803,.625-.625,.625Z"></path><path class="f" d="M631.3438,158.5039h-75.249c-.3447,0-.625-.2798-.625-.625s.2803-.625,.625-.625h75.249c.3447,0,.625,.2798,.625,.625s-.2803,.625-.625,.625Z"></path><path class="f" d="M631.3438,179.3955h-75.249c-.3447,0-.625-.2798-.625-.625s.2803-.625,.625-.625h75.249c.3447,0,.625,.2798,.625,.625s-.2803,.625-.625,.625Z"></path></g><g><path class="e" d="M334.1763,237.3062c-.0806-1.0591,.5994-1.7857,1.4675-2.4477,3.298-2.5151,6.5823-5.0481,9.8606-7.5888,1.0908-.8454,1.799-1.6591,1.5092-3.3765-.3813-2.2595-.4315-4.6952-.0028-6.9363,.41-2.1432-.3462-3.1824-1.9145-4.3239-3.0293-2.2049-5.9152-4.6065-8.8658-6.9198-2.5255-1.9801-2.7295-2.9327-1.2001-5.6097,3.3324-5.833,6.6518-11.6733,9.9924-17.5016,1.5894-2.773,2.6419-3.1448,5.7092-1.9355,3.4815,1.3726,6.9522,2.7755,10.3956,4.2403,1.6689,.7099,3.0321,.7738,4.6392-.4324,1.9568-1.4687,4.1994-2.584,6.4021-3.6848,.8874-.4435,1.4066-.8854,1.5458-1.8823,.6172-4.42,1.3217-8.828,1.9151-13.251,.31-2.3111,1.214-3.2246,3.6104-3.2091,5.5829,.0363,11.1655,.1058,16.7483,.1544,1.7628,.0153,3.5261,.0301,5.2885,.0035,1.9889-.0301,2.8565,1.0317,3.0846,2.9021,.5017,4.1148,1.3001,8.1883,1.6116,12.3335,.1062,1.4134,.6434,2.5599,2.3396,3.2164,2.1967,.8503,4.2521,2.1817,6.1817,3.5661,1.365,.9794,2.5025,1.0223,3.9706,.3984,3.6758-1.562,7.391-3.0336,11.1132-4.483,2.6811-1.044,3.6437-.6944,5.0956,1.7976,3.4531,5.927,6.8914,11.8628,10.3053,17.8125,1.5023,2.6182,1.2987,3.616-1.0587,5.4837-2.8148,2.23-5.6491,4.4358-8.495,6.6261-1.605,1.2353-2.695,2.6322-2.3666,4.8567,.1852,1.2546,.2509,2.6046-.0065,3.8327-.8609,4.107,1.2268,6.4962,4.3869,8.5745,2.455,1.6147,4.6664,3.5984,6.9972,5.4039,1.4574,1.1289,1.9198,2.398,.9227,4.1269-3.7834,6.5601-7.4745,13.1736-11.2926,19.7132-1.0793,1.8486-2.9167,1.9897-6.2089,.3151-3.0758-1.5644-6.3728-2.5522-9.4721-4.0218-1.3486-.6395-2.4591-.7462-3.7225,.3323-1.9521,1.6664-4.2731,2.798-6.6186,3.8239-1.14,.4986-1.6605,1.178-1.8171,2.4962-.5168,4.3504-1.2678,8.6723-1.8559,13.0151-.2594,1.9157-1.2026,2.8313-3.1641,2.8243-7.5306-.027-15.0614-.0275-22.592,.0019-2.0614,.008-2.7456-1.1418-2.9885-2.9759-.5857-4.4217-1.2985-8.8266-1.889-13.2477-.1467-1.0985-.638-1.6399-1.6461-2.0728-2.4222-1.0401-4.7927-2.2399-6.8389-3.9192-1.1797-.9682-2.2043-.8985-3.5106-.342-3.6049,1.5355-7.2539,2.9685-10.8971,4.4125-3.1424,1.2456-3.9924,.9402-5.648-1.9122-3.3237-5.7264-6.6567-11.4473-9.9663-17.1819-.5138-.8902-1.0822-1.7832-1.0543-3.0078Zm44.3237-.0112c2.7613-1.6566,5.1339-3.0801,7.5066-4.5034,6.5803-3.9472,13.1539-7.9055,19.7481-11.8292,.9817-.5841,1.4259-.987,.1402-1.7536-8.6536-5.1594-17.2961-10.3374-25.9219-15.543-1.1928-.7198-1.4876-.4104-1.4851,.8683,.0213,10.7247,.0121,21.4494,.0121,32.7609Z"></path><path class="f" d="M378.5928,278.1777c-2.7969,0-3.3857-2.0068-3.585-3.5186-.2988-2.25-.6299-4.4961-.9609-6.7422-.3193-2.167-.6387-4.334-.9287-6.5049-.1113-.8311-.4209-1.2148-1.2725-1.5811-2.0527-.8809-4.7012-2.1328-6.9893-4.0098-.8809-.7246-1.6064-.7891-2.8701-.251-3.2451,1.3828-6.5771,2.7021-9.7988,3.9785l-1.1123,.4404c-3.4053,1.3516-4.6064,.9424-6.4189-2.1797l-2.7559-4.7441c-2.4072-4.1445-4.8154-8.2881-7.2109-12.4395l-.0957-.165c-.499-.8584-1.0635-1.8301-1.042-3.1387-.0918-1.3867,.8135-2.2744,1.7129-2.9609,3.2969-2.5137,6.5801-5.0459,9.8574-7.5859,1.0449-.8105,1.5029-1.4326,1.2754-2.7773-.4199-2.4912-.4199-4.9663-.001-7.1587,.3555-1.8564-.2549-2.6724-1.668-3.7012-2.0986-1.5278-4.1582-3.1724-6.1494-4.7632-.9092-.7261-1.8184-1.4526-2.7344-2.1704-2.7539-2.1592-3.0332-3.4775-1.3574-6.4111l3.958-6.9365c2.0098-3.5234,4.0186-7.0469,6.0352-10.5659,1.7471-3.0493,3.1416-3.5239,6.4814-2.2061,3.9922,1.5742,7.3008,2.9238,10.4111,4.2466,1.6475,.7017,2.7363,.6045,4.0186-.3574,1.9834-1.4883,4.2461-2.6187,6.4336-3.7114,.9062-.4531,1.1768-.769,1.2705-1.4424,.2725-1.9492,.5615-3.8965,.8506-5.8433,.3662-2.4668,.7324-4.9331,1.0645-7.4038,.3584-2.6812,1.6143-3.7271,4.2334-3.7515,3.4326,.0225,6.8643,.0576,10.2959,.0923l6.4541,.0625c1.7559,.0156,3.5156,.0303,5.2734,.0034,2.1416-.0225,3.4316,1.1274,3.7139,3.4512,.1895,1.5518,.4209,3.0977,.6523,4.6436,.377,2.5166,.7676,5.1196,.9629,7.7188,.1055,1.4111,.668,2.1875,1.9414,2.6802,2.3818,.9219,4.5312,2.3584,6.3203,3.6416,1.1357,.8159,2.0146,.9038,3.3623,.3311,3.8594-1.6401,7.793-3.1904,11.1309-4.4902,2.9424-1.146,4.2578-.6846,5.8623,2.0649,3.7793,6.4883,7.1514,12.3159,10.3076,17.8164,1.6484,2.873,1.3877,4.2241-1.2139,6.2847-2.6152,2.0723-5.3955,4.2417-8.501,6.6313-1.7598,1.355-2.377,2.5918-2.1299,4.27,.2334,1.5747,.2285,2.9004-.0137,4.0527-.6816,3.2549,.5117,5.5508,4.1201,7.9238,1.6758,1.1025,3.2549,2.3857,4.7812,3.627,.7471,.6084,1.4941,1.2158,2.2549,1.8047,1.8008,1.3955,2.165,3.0557,1.0811,4.9336-1.5957,2.7666-3.1748,5.542-4.7539,8.3184-2.1289,3.7432-4.3311,7.6143-6.54,11.3984-1.6494,2.8252-4.624,1.7812-7.0322,.5557-1.6416-.834-3.3877-1.5186-5.0771-2.1797-1.4463-.5664-2.9414-1.1514-4.3789-1.834-1.3135-.6221-2.1113-.5586-3.0488,.2432-2.0215,1.7256-4.4502,2.9043-6.7744,3.9209-.9541,.417-1.3193,.9209-1.4463,1.9971-.3066,2.5703-.6992,5.168-1.0781,7.6807-.2695,1.7803-.5381,3.5605-.7803,5.3447-.3066,2.2646-1.5381,3.3662-3.7617,3.3662h-.0234c-7.665-.0283-15.2646-.0273-22.5879,.001h-.0244Zm-15.207-24.2168c.71,0,1.4609,.2344,2.2637,.8936,2.167,1.7783,4.7129,2.9795,6.6885,3.8281,1.2637,.542,1.8486,1.2852,2.0186,2.5635,.29,2.166,.6084,4.3271,.9268,6.4883,.332,2.252,.6641,4.5039,.9629,6.7607,.2373,1.7939,.8516,2.4326,2.3438,2.4326h.0225c7.3271-.0283,14.9297-.0283,22.5967-.001h.0215c1.5908,0,2.2988-.6416,2.5215-2.2842,.2422-1.79,.5117-3.5771,.7822-5.3643,.3779-2.502,.7695-5.0898,1.0723-7.6406,.1787-1.5068,.833-2.4023,2.1875-2.9941,2.584-1.1309,4.6719-2.1973,6.4629-3.7275,1.6621-1.418,3.1562-1.0107,4.3965-.4209,1.3984,.6631,2.873,1.2402,4.2998,1.7988,1.7168,.6729,3.4922,1.3682,5.1875,2.2305,3.623,1.8418,4.7295,1.0537,5.3857-.0732,2.2061-3.7773,4.4062-7.6455,6.5342-11.3857,1.5801-2.7783,3.1602-5.5566,4.7578-8.3252,.7725-1.3389,.5508-2.3008-.7646-3.3203-.7676-.5947-1.5234-1.209-2.2783-1.8232-1.502-1.2207-3.0557-2.4844-4.6797-3.5518-2.8633-1.8838-5.6553-4.4531-4.6553-9.2251,.208-.9917,.208-2.2075,0-3.6138-.4043-2.7373,1.1797-4.3467,2.6045-5.4429,3.0996-2.3867,5.876-4.5522,8.4873-6.6206,2.123-1.6826,2.25-2.3389,.9053-4.6831-3.1553-5.498-6.5254-11.3237-10.3037-17.8091-1.2998-2.2285-1.9453-2.4565-4.3291-1.5293-3.3291,1.2964-7.251,2.8418-11.0957,4.4756-1.7295,.7368-3.1006,.5962-4.5791-.4658-1.7256-1.2373-3.792-2.6201-6.043-3.4912-1.7256-.668-2.5957-1.8604-2.7363-3.7529-.1924-2.5527-.5791-5.1323-.9531-7.627-.2324-1.5571-.4658-3.1143-.6562-4.6772-.207-1.6938-.8945-2.3662-2.4541-2.3525-1.7686,.0269-3.5361,.0122-5.3037-.0034l-6.4561-.0625c-3.4297-.0352-6.8604-.0698-10.291-.0923h-.0596c-1.9678,0-2.6543,.6309-2.9277,2.6675-.332,2.4771-.6992,4.9492-1.0664,7.4214-.2881,1.9434-.5771,3.8872-.8486,5.833-.1768,1.2603-.8818,1.853-1.8857,2.355-2.2021,1.1001-4.4141,2.2051-6.3066,3.6255-2.0557,1.5444-3.8115,1.123-5.2588,.5078-3.0986-1.3188-6.3975-2.6641-10.3799-4.2339-2.7598-1.0884-3.501-.8428-4.9385,1.6646-2.0156,3.5181-4.0244,7.0405-6.0332,10.5635l-3.958,6.9375c-1.3682,2.395-1.2324,3.0239,1.043,4.8076,.918,.7197,1.8311,1.4487,2.7432,2.1772,1.9805,1.582,4.0283,3.2178,6.1055,4.729,1.6836,1.2256,2.6318,2.4805,2.1602,4.9473-.3926,2.0474-.3906,4.3696,.0049,6.7153,.3613,2.1396-.6621,3.1367-1.7422,3.9736-3.2793,2.542-6.5664,5.0762-9.8652,7.5918-.9307,.709-1.2734,1.2432-1.2227,1.9033l.0029,.0312-.001,.0312c-.0225,.9707,.4121,1.7197,.873,2.5117l.0967,.168c2.3955,4.1504,4.8027,8.2939,7.21,12.4365l2.7568,4.7451c1.498,2.5811,2.0449,2.7676,4.876,1.6445l1.1123-.4404c3.2148-1.2734,6.5391-2.5898,9.7705-3.9668,.5986-.2539,1.2256-.459,1.8887-.459Zm14.4893-15.5625l.001-8.9199c.002-8.4912,.0029-16.7173-.0127-24.9434-.002-.7178,.0742-1.4258,.6328-1.7422,.5654-.3198,1.2275-.0073,1.7998,.3379,8.0869,4.8804,16.5645,9.9639,25.9189,15.5415,.5117,.3047,1.0996,.7373,1.0986,1.3799,0,.71-.7158,1.1362-1.2393,1.4478-4.9727,2.958-9.9336,5.9365-14.8936,8.915l-13.3057,7.9834Zm1.2754-34.4531c-.0195,.104-.0381,.2842-.0371,.5874,.0156,8.2271,.0146,16.4541,.0127,24.9458l-.001,6.7129,11.4121-6.8477c4.9619-2.9795,9.9238-5.959,14.8984-8.9185,.3096-.1841,.4766-.3027,.5654-.3784-.0703-.0649-.1982-.165-.4268-.3008-9.3555-5.5786-17.8359-10.6636-25.9248-15.5449-.2441-.1479-.4023-.2202-.499-.2559Z"></path></g><g><path class="d" d="M378.5,237.2949c0-11.3115,.0092-22.0362-.0121-32.7609-.0025-1.2787,.2923-1.5881,1.4851-.8683,8.6258,5.2056,17.2683,10.3836,25.9219,15.543,1.2857,.7665,.8415,1.1694-.1402,1.7536-6.5942,3.9237-13.1679,7.882-19.7481,11.8292-2.3727,1.4233-4.7453,2.8468-7.5066,4.5034Z"></path><path class="f" d="M377.875,238.3984l.001-8.9199c.002-8.4912,.0029-16.7173-.0127-24.9434-.002-.7178,.0742-1.4258,.6328-1.7422,.5654-.3198,1.2275-.0073,1.7998,.3379,8.0869,4.8804,16.5645,9.9639,25.9189,15.5415,.5117,.3047,1.0996,.7373,1.0986,1.3799,0,.71-.7158,1.1362-1.2393,1.4468-4.9727,2.959-9.9336,5.9375-14.8936,8.916l-13.3057,7.9834Zm1.2754-34.4531c-.0195,.104-.0381,.2842-.0371,.5874,.0156,8.2271,.0146,16.4541,.0127,24.9458l-.001,6.7129,11.4121-6.8477c4.9619-2.9795,9.9238-5.959,14.8984-8.9185,.3096-.1841,.4766-.3027,.5654-.3784-.0703-.0649-.1982-.165-.4268-.3008-9.3555-5.5786-17.8359-10.6636-25.9248-15.5449-.2441-.1479-.4023-.2202-.499-.2559Z"></path></g><g><path class="e" d="M290.6181,139.0638h-65.8597c-3.9778,0-7.2022-3.2246-7.2022-7.2023V66.0017c0-.5859,.0775-1.1524,.2096-1.6977-3.1569,.7643-5.5044,3.6007-5.5044,6.9926v65.8599c0,3.9777,3.2244,7.2022,7.2022,7.2022h65.8597c3.3918,0,6.2285-2.3476,6.9927-5.5045-.5453,.1321-1.1118,.2096-1.6978,.2096Z"></path><path class="f" d="M285.3232,144.9839h-65.8594c-4.3154,0-7.8271-3.5112-7.8271-7.8276V71.2964c0-3.6221,2.46-6.7471,5.9814-7.5996l.9951-.2407-.2402,.9951c-.1279,.5283-.1924,1.0498-.1924,1.5508v65.8594c0,3.627,2.9512,6.5776,6.5781,6.5776h65.8594c.5029,0,1.0244-.0649,1.5498-.1924l.9961-.2417-.2412,.9961c-.8516,3.5225-3.9775,5.9829-7.5996,5.9829Zm-68.3496-79.77c-2.4482,.9946-4.0869,3.373-4.0869,6.0825v65.8599c0,3.627,2.9502,6.5776,6.5771,6.5776h65.8594c2.71,0,5.0879-1.6392,6.082-4.0874-.2646,.0283-.5273,.0425-.7871,.0425h-65.8594c-4.3164,0-7.8281-3.5112-7.8281-7.8276V66.002c0-.2593,.0146-.5225,.043-.7881Z"></path></g><g><g><rect class="e" x="222.4844" y="54.1009" width="80.2643" height="80.2643" rx="5.865" ry="5.865"></rect><path class="f" d="M296.8838,134.9902h-68.5342c-3.5791,0-6.4902-2.9116-6.4902-6.4902V59.9658c0-3.5786,2.9111-6.4897,6.4902-6.4897h68.5342c3.5791,0,6.4902,2.9111,6.4902,6.4897v68.5342c0,3.5786-2.9111,6.4902-6.4902,6.4902ZM228.3496,54.7261c-2.8896,0-5.2402,2.3506-5.2402,5.2397v68.5342c0,2.8896,2.3506,5.2402,5.2402,5.2402h68.5342c2.8896,0,5.2402-2.3506,5.2402-5.2402V59.9658c0-2.8892-2.3506-5.2397-5.2402-5.2397h-68.5342Z"></path></g><g><path class="d" d="M249.0283,110.634c0-10.9099,.0089-21.2539-.0117-31.5978-.0024-1.2333,.2819-1.5317,1.4324-.8375,8.3196,5.0208,16.6553,10.015,25.0016,14.9912,1.24,.7393,.8116,1.1279-.1352,1.6913-6.3601,3.7844-12.7004,7.6022-19.047,11.4092-2.2885,1.3728-4.5768,2.7457-7.2401,4.3435Z"></path><path class="f" d="M248.4033,111.7378l.001-8.6431c.002-8.1895,.0029-16.1235-.0127-24.0571-.001-.6997,.0732-1.3896,.6221-1.6997,.5547-.312,1.2002-.0112,1.7588,.3257,7.8018,4.709,15.9785,9.6123,24.998,14.9897,.499,.2974,1.0713,.7192,1.0713,1.3506-.001,.6973-.6982,1.1118-1.207,1.4146-4.8076,2.8604-9.6035,5.7402-14.3994,8.6201l-12.832,7.6992Zm1.2695-33.2397c-.0166,.1021-.0312,.2686-.0312,.5371,.0156,7.9346,.0146,15.8696,.0127,24.0601l-.001,6.4346,10.9385-6.563c4.7969-2.8809,9.5947-5.7612,14.4043-8.6226,.2773-.165,.4346-.2744,.5225-.3467-.0693-.061-.1875-.1514-.3887-.271-9.0205-5.3784-17.1992-10.2827-25.0039-14.9927-.2148-.1299-.3604-.1992-.4531-.2358Z"></path></g></g><g><rect class="d" x="106.2396" y="93.1707" width="20.2276" height="27.2632"></rect><path class="f" d="M127.0918,121.0591h-21.4775v-28.5132h21.4775v28.5132Zm-20.2275-1.25h18.9775v-26.0132h-18.9775v26.0132Z"></path></g><g><rect class="d" x="106.2396" y="125.271" width="20.2276" height="16.27"></rect><path class="f" d="M127.0918,142.166h-21.4775v-17.52h21.4775v17.52Zm-20.2275-1.25h18.9775v-15.02h-18.9775v15.02Z"></path></g><g><rect class="d" x="131.5241" y="114.2777" width="20.2276" height="27.2632"></rect><path class="f" d="M152.377,142.166h-21.4775v-28.5132h21.4775v28.5132Zm-20.2275-1.25h18.9775v-26.0132h-18.9775v26.0132Z"></path></g><g><rect class="d" x="131.5241" y="93.1707" width="20.2276" height="16.7097"></rect><path class="f" d="M152.377,110.5054h-21.4775v-17.9595h21.4775v17.9595Zm-20.2275-1.25h18.9775v-15.4595h-18.9775v15.4595Z"></path></g><g><path class="d" d="M548.4171,337.1776c0-8.3937,.0068-16.3521-.009-24.3104-.0019-.9488,.2169-1.1785,1.102-.6443,6.4008,3.8629,12.8141,7.7052,19.2355,11.5338,.954,.5688,.6244,.8678-.104,1.3012-4.8933,2.9116-9.7713,5.8489-14.6542,8.7779-1.7607,1.0562-3.5213,2.1125-5.5703,3.3418Z"></path><path class="f" d="M547.792,338.2812l.001-6.9678c.001-6.2783,.002-12.3623-.0098-18.4453-.001-.3916-.002-1.1201,.5518-1.4336,.4912-.2764,1.0322-.0273,1.498,.2529,6.4004,3.8623,12.8125,7.7041,19.2334,11.5322,.416,.248,.8936,.6045,.8936,1.1631-.001,.6182-.6016,.9756-.999,1.2119-3.6592,2.1777-7.3096,4.3691-10.96,6.5605l-10.209,6.126Zm1.2451-25.6094c-.0029,.0537-.0039,.1182-.0039,.1943,.0117,6.084,.0107,12.168,.0098,18.4473l-.001,4.7607,8.3154-4.9902c3.6523-2.1924,7.3037-4.3848,10.9648-6.5635,.0977-.0586,.1738-.1064,.2334-.1455-.0361-.0244-.0791-.0518-.1299-.0811-6.4229-3.8301-12.8369-7.6719-19.2393-11.5361-.0566-.0342-.1064-.0625-.1494-.0859Z"></path></g><g><rect class="d" x="481.9381" y="271.7556" width="75.15" height="11.1333"></rect><path class="f" d="M557.7129,283.5137h-76.3994v-12.3828h76.3994v12.3828Zm-75.1494-1.25h73.8994v-9.8828h-73.8994v9.8828Z"></path></g><g><rect class="d" x="481.9381" y="290.6823" width="75.15" height="11.1333"></rect><path class="f" d="M557.7129,302.4404h-76.3994v-12.3828h76.3994v12.3828Zm-75.1494-1.25h73.8994v-9.8828h-73.8994v9.8828Z"></path></g><g><rect class="d" x="481.9381" y="309.609" width="57.8934" height="11.1333"></rect><path class="f" d="M540.4561,321.3672h-59.1426v-12.3828h59.1426v12.3828Zm-57.8926-1.25h56.6426v-9.8828h-56.6426v9.8828Z"></path></g><g><rect class="i" x="86.3125" y="159.4595" width="216.0492" height="167.3408"></rect><path class="f" d="M302.9863,327.4258H85.6875V158.8345h217.2988v168.5913Zm-216.0488-1.25h214.7988V160.0845H86.9375v166.0913Z"></path></g><g><g><path class="h" d="M97.3235,164.9382h-.4544c-.5441,0-1.0659,.2161-1.4506,.6009l-.3213,.3213c-.3847,.3847-.6009,.9065-.6009,1.4506v.4544c0,.5441,.2161,1.0659,.6009,1.4506l.3213,.3213c.3847,.3847,.9065,.6009,1.4506,.6009h.4544c.5441,0,1.0659-.2161,1.4506-.6009l.3213-.3213c.3847-.3847,.6009-.9065,.6009-1.4506v-.4544c0-.5441-.2161-1.0659-.6009-1.4506l-.3213-.3213c-.3847-.3847-.9065-.6009-1.4506-.6009Z"></path><path class="f" d="M97.3232,170.7632h-.4541c-.7041,0-1.3945-.2856-1.8926-.7832l-.3223-.3228c-.4971-.4966-.7832-1.1865-.7832-1.8916v-.4546c0-.7153,.2783-1.3872,.7832-1.8926l.3213-.3213c.499-.4985,1.1885-.7842,1.8936-.7842h.4541c.7051,0,1.3945,.2856,1.8936,.7842l.3213,.3213c.5049,.5054,.7832,1.1772,.7832,1.8926v.4546c0,.7051-.2861,1.395-.7842,1.8926l-.3203,.3208c-.499,.4985-1.1895,.7842-1.8936,.7842Zm-.4541-5.2002c-.376,0-.7432,.1523-1.0088,.418l-.3213,.3213c-.2695,.2695-.418,.6274-.418,1.0088v.4546c0,.376,.1523,.7432,.417,1.0078l.3223,.3228c.2656,.2646,.6328,.417,1.0088,.417h.4541c.376,0,.7432-.1523,1.0098-.418l.3203-.3208c.2656-.2656,.418-.6328,.418-1.0088v-.4546c0-.3813-.1484-.7393-.418-1.0088l-.3213-.3213c-.2656-.2656-.6328-.418-1.0088-.418h-.4541Z"></path></g><g><path class="e" d="M106.4235,164.9382h-.4544c-.5441,0-1.0659,.2161-1.4506,.6009l-.3213,.3213c-.3847,.3847-.6009,.9065-.6009,1.4506v.4544c0,.5441,.2161,1.0659,.6009,1.4506l.3213,.3213c.3847,.3847,.9065,.6009,1.4506,.6009h.4544c.5441,0,1.0659-.2161,1.4506-.6009l.3213-.3213c.3847-.3847,.6009-.9065,.6009-1.4506v-.4544c0-.5441-.2161-1.0659-.6009-1.4506l-.3213-.3213c-.3847-.3847-.9065-.6009-1.4506-.6009Z"></path><path class="f" d="M106.4238,170.7632h-.4551c-.7139,0-1.3857-.2783-1.8916-.7832l-.3223-.3228c-.4971-.4966-.7832-1.1865-.7832-1.8916v-.4546c0-.7153,.2783-1.3872,.7832-1.8926l.3213-.3213c.5059-.5059,1.1777-.7842,1.8926-.7842h.4551c.7148,0,1.3867,.2783,1.8926,.7842l.3213,.3213c.5049,.5054,.7832,1.1772,.7832,1.8926v.4546c0,.7051-.2861,1.395-.7842,1.8926l-.3203,.3208c-.5068,.5059-1.1787,.7842-1.8926,.7842Zm-.4551-5.2002c-.3809,0-.7383,.1484-1.0078,.418l-.3213,.3213c-.2695,.2695-.418,.6274-.418,1.0088v.4546c0,.376,.1523,.7432,.417,1.0078l.3223,.3228c.2695,.2686,.627,.417,1.0078,.417h.4551c.3809,0,.7383-.1484,1.0088-.418l.3203-.3208c.2656-.2656,.418-.6328,.418-1.0088v-.4546c0-.3813-.1484-.7393-.418-1.0088l-.3213-.3213c-.2695-.2695-.627-.418-1.0078-.418h-.4551Z"></path></g><g><path class="d" d="M115.5236,164.9382h-.4544c-.5441,0-1.0659,.2161-1.4506,.6009l-.3213,.3213c-.3847,.3847-.6009,.9065-.6009,1.4506v.4544c0,.5441,.2161,1.0659,.6009,1.4506l.3213,.3213c.3847,.3847,.9065,.6009,1.4506,.6009h.4544c.5441,0,1.0659-.2161,1.4506-.6009l.3213-.3213c.3847-.3847,.6009-.9065,.6009-1.4506v-.4544c0-.5441-.2161-1.0659-.6009-1.4506l-.3213-.3213c-.3847-.3847-.9065-.6009-1.4506-.6009Z"></path><path class="f" d="M115.5234,170.7632h-.4541c-.7041,0-1.3945-.2856-1.8926-.7832l-.3223-.3228c-.4971-.4966-.7832-1.1865-.7832-1.8916v-.4546c0-.7153,.2783-1.3872,.7832-1.8926l.3213-.3213c.499-.4985,1.1885-.7842,1.8936-.7842h.4541c.7051,0,1.3945,.2856,1.8936,.7842l.3213,.3213c.5049,.5054,.7832,1.1772,.7832,1.8926v.4546c0,.7051-.2861,1.395-.7842,1.8926l-.3203,.3208c-.499,.4985-1.1895,.7842-1.8936,.7842Zm-.4541-5.2002c-.376,0-.7432,.1523-1.0088,.418l-.3213,.3213c-.2695,.2695-.418,.6274-.418,1.0088v.4546c0,.376,.1523,.7432,.417,1.0078l.3223,.3228c.2656,.2646,.6328,.417,1.0088,.417h.4541c.376,0,.7432-.1523,1.0098-.418l.3203-.3208c.2656-.2656,.418-.6328,.418-1.0088v-.4546c0-.3813-.1484-.7393-.418-1.0088l-.3213-.3213c-.2656-.2656-.6328-.418-1.0088-.418h-.4541Z"></path></g></g><g><g><rect class="h" x="147.2815" y="236.1721" width="22.3989" height="90.6283"></rect><path class="f" d="M170.3057,327.4258h-23.6494v-91.8789h23.6494v91.8789Zm-22.3994-1.25h21.1494v-89.3789h-21.1494v89.3789Z"></path></g><g><rect class="d" x="111.4254" y="284.7802" width="22.3989" height="42.0202"></rect><path class="f" d="M134.4492,327.4258h-23.6484v-43.2705h23.6484v43.2705Zm-22.3984-1.25h21.1484v-40.7705h-21.1484v40.7705Z"></path></g><g><rect class="d" x="183.1377" y="251.7967" width="22.3989" height="75.0037"></rect><path class="f" d="M206.1611,327.4258h-23.6484v-76.2539h23.6484v76.2539Zm-22.3984-1.25h21.1484v-73.7539h-21.1484v73.7539Z"></path></g><g><rect class="h" x="218.9938" y="216.7109" width="22.3989" height="110.0895"></rect><path class="f" d="M242.0176,327.4258h-23.6484v-111.3398h23.6484v111.3398Zm-22.3984-1.25h21.1484v-108.8398h-21.1484v108.8398Z"></path></g><g><rect class="d" x="254.8499" y="196.6708" width="22.3989" height="130.1295"></rect><path class="f" d="M277.874,327.4258h-23.6494V196.0459h23.6494v131.3799Zm-22.3994-1.25h21.1494V197.2959h-21.1494v128.8799Z"></path></g></g></g></svg>